<?xml version="1.0" standalone="no"?>
<!DOCTYPE svg PUBLIC "-//W3C//DTD SVG 20010904//EN"
 "http://www.w3.org/TR/2001/REC-SVG-20010904/DTD/svg10.dtd">
<svg version="1.0" xmlns="http://www.w3.org/2000/svg"
 width="500.000000pt" height="500.000000pt" viewBox="0 0 500.000000 500.000000"
 preserveAspectRatio="xMidYMid meet">
<metadata>
Created by potrace 1.14, written by Peter Selinger 2001-2017
</metadata>
<g transform="translate(0.000000,500.000000) scale(0.100000,-0.100000)"
fill="#000000" stroke="none">
<path d="M2323 4500 c-85 -22 -117 -38 -199 -96 -101 -71 -185 -181 -233 -301
l-21 -53 123 0 c67 0 153 5 191 10 38 6 71 8 73 6 2 -2 -21 -16 -53 -31 -55
-26 -133 -43 -299 -63 -106 -14 -183 -44 -238 -93 -77 -67 -128 -204 -113
-304 l7 -47 28 44 c85 133 282 257 483 302 35 8 133 24 218 35 184 24 296 52
368 91 28 15 52 25 52 20 0 -14 -97 -98 -136 -118 -64 -32 -137 -50 -295 -72
-272 -38 -450 -107 -578 -226 -119 -110 -128 -180 -36 -282 50 -56 51 -54 -30
-95 -87 -44 -258 -168 -321 -233 -70 -73 -125 -174 -150 -279 -21 -90 -15
-325 20 -800 34 -451 40 -505 66 -557 12 -24 81 -102 156 -178 l133 -135 -64
-119 c-36 -66 -66 -126 -67 -134 -2 -11 12 -19 47 -28 28 -8 55 -14 60 -14 6
0 33 45 60 100 27 55 50 100 52 100 1 0 57 -42 125 -93 260 -198 352 -252 568
-339 285 -114 570 -82 782 86 78 62 140 143 194 251 66 134 86 222 88 387 l1
137 50 16 c109 36 218 123 262 210 37 72 80 205 88 270 l8 57 143 119 c142
118 144 120 144 160 0 29 -6 46 -23 62 -13 12 -68 102 -122 200 l-100 177 -41
0 c-38 0 -46 -5 -84 -50 -23 -27 -46 -50 -50 -50 -5 0 -65 34 -134 75 -69 41
-130 75 -135 75 -6 0 -78 -61 -161 -135 -83 -74 -154 -135 -158 -135 -4 1 -18
24 -31 53 -14 29 -52 80 -86 114 -60 60 -62 64 -68 126 -8 87 -33 146 -100
245 -84 123 -80 154 31 220 132 79 235 220 279 382 22 80 26 372 6 405 -12 19
-12 19 -13 -6 0 -35 -44 -167 -76 -232 -39 -76 -78 -122 -135 -157 -60 -37
-79 -75 -79 -159 0 -62 -7 -71 -54 -71 -21 0 -39 -16 -62 -55 -6 -11 -23 -26
-37 -35 -14 -8 -36 -28 -49 -45 -30 -40 -38 -45 -74 -45 -98 0 -256 186 -299
355 -28 109 -18 164 32 183 54 20 92 21 220 6 278 -33 469 33 551 190 22 42
27 65 27 126 0 65 -4 84 -33 143 -21 42 -47 78 -70 95 -20 15 -66 57 -102 93
-136 139 -331 190 -527 139z m-29 -1415 c4 -33 12 -64 18 -70 7 -7 8 1 4 29
-4 21 -4 36 1 34 83 -39 132 -60 164 -70 34 -10 41 -17 50 -52 14 -53 62 -158
88 -195 12 -16 21 -32 21 -35 0 -4 -15 -15 -32 -26 -74 -45 -279 -17 -434 60
-129 63 -198 134 -243 246 l-20 52 67 21 c87 28 157 80 183 134 l21 43 53 -55
c48 -51 53 -61 59 -116z m-566 -21 c53 -7 54 -7 77 -60 35 -79 96 -163 163
-225 112 -104 310 -184 484 -196 104 -7 167 6 225 48 l43 30 67 -48 c37 -26
85 -65 106 -87 42 -41 91 -135 85 -163 -2 -9 -53 -61 -113 -116 -188 -170
-205 -187 -205 -212 0 -51 19 -71 83 -89 330 -91 548 -373 549 -711 0 -157
-48 -335 -91 -335 -11 0 -26 -3 -34 -6 -10 -3 -17 4 -22 23 -17 70 -42 76
-238 58 -160 -15 -305 -44 -360 -72 -26 -13 -31 -13 -50 4 -35 30 -641 609
-658 629 -15 17 -16 44 -11 219 l5 201 71 -24 c139 -47 329 -13 494 89 46 28
81 53 78 56 -2 3 -26 -2 -53 -11 -78 -25 -192 -39 -284 -34 -97 6 -170 33
-231 86 -73 65 -102 196 -71 323 26 109 23 246 -6 334 -32 96 -95 200 -155
259 -42 41 -47 48 -26 43 14 -4 49 -10 78 -13z m-164 -85 c117 -78 193 -246
179 -399 -7 -70 -13 -80 -28 -40 -12 31 -14 19 -14 -120 -1 -85 2 -321 6 -524
l6 -368 26 -31 c63 -75 695 -676 726 -691 32 -16 40 -16 93 -1 185 50 250 64
365 75 70 7 130 10 133 8 3 -3 2 -18 -2 -33 -8 -31 -30 -41 -139 -62 -79 -15
-121 -30 -112 -39 8 -9 120 -33 150 -34 16 0 67 16 114 35 47 20 89 35 94 33
16 -5 -47 -82 -95 -116 -212 -152 -508 -160 -750 -20 -128 74 -389 255 -497
345 -343 285 -418 355 -446 421 -7 18 -20 112 -28 210 -8 97 -19 216 -24 263
-25 207 -58 696 -51 754 15 121 46 190 118 268 41 44 106 95 123 96 3 1 27
-13 53 -30z m1155 -95 c37 -43 79 -139 66 -153 -12 -11 -85 75 -114 135 -17
35 -31 68 -31 74 0 19 35 -7 79 -56z m954 -438 c186 -106 247 -139 247 -131 0
2 -9 24 -21 48 -15 31 -38 54 -80 81 -33 21 -61 42 -64 46 -2 4 11 21 29 39
l33 32 87 -146 c47 -80 86 -147 86 -149 0 -2 -19 -6 -42 -8 -50 -6 -78 7 -331
149 -147 83 -170 93 -185 81 -9 -7 -125 -103 -257 -213 -354 -295 -329 -277
-359 -269 -14 3 -26 12 -26 19 0 8 105 105 233 216 127 112 269 236 315 276
l83 73 42 -24 c23 -13 118 -67 210 -120z m-53 -528 c29 -24 61 -49 71 -57 25
-18 24 -37 -10 -124 -52 -136 -116 -213 -213 -257 -60 -27 -104 -26 -112 3
-10 37 -7 47 15 47 29 0 59 18 59 36 0 8 -20 55 -44 105 -25 50 -42 97 -39
105 17 44 87 -19 145 -132 33 -63 48 -72 48 -29 0 38 -37 112 -96 193 -55 77
-65 114 -32 120 23 4 137 -113 169 -173 13 -25 27 -45 31 -45 3 0 11 14 17 31
13 37 -1 68 -49 114 -37 34 -59 74 -53 93 8 23 41 12 93 -30z"/>
</g>
</svg>
